name rise30.9205peak61.366fall85.3838.mot
datacolumns 19
datarows 12
range 12.70661700000000 12.72495400000000
endheader
time	ground_force1_vx	ground_force1_vy	ground_force1_vz	ground_force1_px	ground_force1_py	ground_force1_pz	ground_force2_vx	ground_force2_vy	ground_force2_vz	ground_force2_px	ground_force2_py	ground_force2_pz	ground_torque1_x	ground_torque1_y	ground_torque1_z	ground_torque2_x	ground_torque2_y	ground_torque2_z	
12.70661700000000	56.65755400000000	795.67721800000004	63.61669800000000	0.32466300000000	0.00000000000000	0.11414500000000	0.00000000000000	0.00000000000000	0.00000000000000	0.00000000000000	0.00000000000000	0.00000000000000	0.00000000000000	28.07613400000000	0.00000000000000	0.00000000000000	0.00000000000000	0.00000000000000	
12.70828300000000	55.94916200000000	796.82862799999998	63.56082100000000	0.32351900000000	0.00000000000000	0.11420200000000	0.00000000000000	0.00000000000000	0.00000000000000	0.00000000000000	0.00000000000000	0.00000000000000	0.00000000000000	28.03242100000000	0.00000000000000	0.00000000000000	0.00000000000000	0.00000000000000	
12.70995100000000	55.24503500000000	797.84423200000003	63.48798200000000	0.32239100000000	0.00000000000000	0.11425800000000	0.00000000000000	0.00000000000000	0.00000000000000	0.00000000000000	0.00000000000000	0.00000000000000	0.00000000000000	27.97955800000000	0.00000000000000	0.00000000000000	0.00000000000000	0.00000000000000	
12.71162700000000	54.54548700000000	798.72431800000004	63.39830500000000	0.32127900000000	0.00000000000000	0.11431300000000	0.00000000000000	0.00000000000000	0.00000000000000	0.00000000000000	0.00000000000000	0.00000000000000	0.00000000000000	27.91766200000000	0.00000000000000	0.00000000000000	0.00000000000000	0.00000000000000	
12.71329100000000	53.85076200000000	799.46932800000002	63.29191300000000	0.32018300000000	0.00000000000000	0.11436700000000	0.00000000000000	0.00000000000000	0.00000000000000	0.00000000000000	0.00000000000000	0.00000000000000	0.00000000000000	27.84685100000000	0.00000000000000	0.00000000000000	0.00000000000000	0.00000000000000	
12.71495100000000	53.16104400000000	800.07986500000004	63.16893000000000	0.31910100000000	0.00000000000000	0.11442000000000	0.00000000000000	0.00000000000000	0.00000000000000	0.00000000000000	0.00000000000000	0.00000000000000	0.00000000000000	27.76724200000000	0.00000000000000	0.00000000000000	0.00000000000000	0.00000000000000	
12.71662900000000	52.47645600000000	800.55669499999999	63.02948400000000	0.31803400000000	0.00000000000000	0.11447100000000	0.00000000000000	0.00000000000000	0.00000000000000	0.00000000000000	0.00000000000000	0.00000000000000	0.00000000000000	27.67895500000000	0.00000000000000	0.00000000000000	0.00000000000000	0.00000000000000	
12.71828500000000	51.79706400000000	800.90075899999999	62.87371300000000	0.31697900000000	0.00000000000000	0.11452100000000	0.00000000000000	0.00000000000000	0.00000000000000	0.00000000000000	0.00000000000000	0.00000000000000	0.00000000000000	27.58211300000000	0.00000000000000	0.00000000000000	0.00000000000000	0.00000000000000	
12.71995600000000	51.12288600000000	801.11317199999996	62.70176100000000	0.31593700000000	0.00000000000000	0.11457000000000	0.00000000000000	0.00000000000000	0.00000000000000	0.00000000000000	0.00000000000000	0.00000000000000	0.00000000000000	27.47684400000000	0.00000000000000	0.00000000000000	0.00000000000000	0.00000000000000	
12.72162500000000	50.45388700000000	801.19523400000003	62.51378800000000	0.31490600000000	0.00000000000000	0.11461700000000	0.00000000000000	0.00000000000000	0.00000000000000	0.00000000000000	0.00000000000000	0.00000000000000	0.00000000000000	27.36328300000000	0.00000000000000	0.00000000000000	0.00000000000000	0.00000000000000	
12.72328900000000	49.78999200000000	801.14842399999998	62.30996800000000	0.31388400000000	0.00000000000000	0.11466300000000	0.00000000000000	0.00000000000000	0.00000000000000	0.00000000000000	0.00000000000000	0.00000000000000	0.00000000000000	27.24157100000000	0.00000000000000	0.00000000000000	0.00000000000000	0.00000000000000	
12.72495400000000	49.13108300000000	800.97441000000003	62.09049100000000	0.31287200000000	0.00000000000000	0.11470800000000	0.00000000000000	0.00000000000000	0.00000000000000	0.00000000000000	0.00000000000000	0.00000000000000	0.00000000000000	27.11185600000000	0.00000000000000	0.00000000000000	0.00000000000000	0.00000000000000	
